<?xml version="1.0" standalone="no"?>
<!DOCTYPE svg PUBLIC "-//W3C//DTD SVG 1.1//EN" "http://www.w3.org/Graphics/SVG/1.1/DTD/svg11.dtd">
<svg width="100%" height="100%" viewBox="0 0 336 300"  viewport-fill="none" version="1.1" xmlns="http://www.w3.org/2000/svg" xmlns:xlink="http://www.w3.org/1999/xlink" xml:space="preserve" style="fill-rule:evenodd;clip-rule:evenodd;stroke-linecap:round;stroke-linejoin:round;stroke-miterlimit:1.41421;">
    <g transform="matrix(1.39121,0,0,1.39362,-32.08,-30.5142)">
        <path d="M257.084,58.173C257.084,41.535 243.553,28.028 226.887,28.028L58.162,28.028C41.496,28.028 27.965,41.535 27.965,58.173L27.965,199.792C27.965,216.429 41.496,229.937 58.162,229.937L226.887,229.937C243.553,229.937 257.084,216.429 257.084,199.792L257.084,58.173Z" style="fill:rgb(215,219,194);stroke-width:0.54px;stroke:black;"/>
    </g>
    <g transform="matrix(1.0091,0,0,0.938308,1.00259,-18.92)">
        <path d="M321.96,64.595C321.96,45.546 307.579,30.08 289.866,30.08L38.157,30.08C20.444,30.08 6.063,45.546 6.063,64.595C6.063,83.645 20.444,99.111 38.157,99.111L289.866,99.111C307.579,99.111 321.96,83.645 321.96,64.595Z" style="fill:rgb(83,78,113);"/>
    </g>
    <g transform="matrix(1.00989,0,0,0.938308,0.749292,-19.92)">
        <path d="M321.96,64.595C321.96,45.546 307.59,30.08 289.891,30.08L38.132,30.08C20.433,30.08 6.063,45.546 6.063,64.595C6.063,83.645 20.433,99.111 38.132,99.111L289.891,99.111C307.59,99.111 321.96,83.645 321.96,64.595Z" style="fill:rgb(83,78,113);"/>
    </g>
    <g transform="matrix(1.0439,0,0,1.0088,-11.2133,-28.1707)">
        <rect x="17.216" y="66.701" width="305.668" height="29.733" style="fill:rgb(83,78,113);"/>
    </g>
    <g transform="matrix(1.00685,0,0,1.51509,0.235423,-64.5675)">
        <rect x="7.045" y="86.959" width="315.715" height="6.009" style="fill:rgb(215,219,194);"/>
    </g>
    <g transform="matrix(1,0,0,1,4,-1)">
        <g transform="matrix(0.593473,0.0652083,-0.0647814,0.589588,83.4378,135.895)">
            <path fill="none" stroke="rgb(83,78,113)" stroke-width="7" d="M 170 207C139 183 40 199 41 109A18 18 0 1 1 56 75Q67 53 91 45A18 18 0 1 1 127 40C170 29 193 62 212 173L225 110Q241 70 252 120L253 156 C253 180 265 223 235 214Q210 210 215 242 C222 265 161 249 125 248" />
        </g>
    </g>
    <g transform="matrix(1,0,0,1,-89.3761,-2.65339)">
        <text x="147.736px" y="54.757px" style="font-family:'SanFranciscoDisplay-Regular',system,sans-serif;font-weight:500;font-size:48px;fill:rgb(215,219,194);">(Generally)</text>
    </g>
    <g transform="matrix(1.37772,0,0,1.37772,-180.792,42.495)">
        <text x="174.807px" y="54.757px" style="font-family:'SanFranciscoDisplay-Bold',system,sans-serif;font-weight:bold;font-size:48px;fill:rgb(83,78,113);stroke-width:0.73px;stroke-linecap:butt;stroke:rgb(230,230,230);">Helpful</text>
        <text x="250.51px" y="74.757px" style="font-family:'SanFranciscoDisplay-Bold',system,sans-serif;font-weight:bold;font-size:20px;fill:rgb(83,78,113);stroke-width:0.73px;stroke-linecap:butt;stroke:rgb(230,230,230);">Software</text>
    </g>
</svg>
