<?xml version="1.0" standalone="no"?>
<!DOCTYPE svg PUBLIC "-//W3C//DTD SVG 1.1//EN" "http://www.w3.org/Graphics/SVG/1.1/DTD/svg11.dtd">
<svg width="100%" height="100%" viewBox="0 0 336 300" version="1.1" xmlns="http://www.w3.org/2000/svg" xmlns:xlink="http://www.w3.org/1999/xlink" xml:space="preserve" style="fill-rule:evenodd;clip-rule:evenodd;stroke-linecap:round;stroke-linejoin:round;stroke-miterlimit:1.41421;">
    <g transform="matrix(1.39121,0,0,1.39362,-32.08,-30.5142)">
        <path d="M257.084,58.173C257.084,41.535 243.553,28.028 226.887,28.028L58.162,28.028C41.496,28.028 27.965,41.535 27.965,58.173L27.965,199.792C27.965,216.429 41.496,229.937 58.162,229.937L226.887,229.937C243.553,229.937 257.084,216.429 257.084,199.792L257.084,58.173Z" style="fill:rgb(215,219,194);stroke-width:0.54px;stroke:black;"/>
    </g>
    <g transform="matrix(1.0091,0,0,0.938308,1.00259,-18.92)">
        <path d="M321.96,64.595C321.96,45.546 307.579,30.08 289.866,30.08L38.157,30.08C20.444,30.08 6.063,45.546 6.063,64.595C6.063,83.645 20.444,99.111 38.157,99.111L289.866,99.111C307.579,99.111 321.96,83.645 321.96,64.595Z" style="fill:rgb(83,78,113);"/>
    </g>
    <g transform="matrix(1.00989,0,0,0.938308,0.749292,-19.92)">
        <path d="M321.96,64.595C321.96,45.546 307.59,30.08 289.891,30.08L38.132,30.08C20.433,30.08 6.063,45.546 6.063,64.595C6.063,83.645 20.433,99.111 38.132,99.111L289.891,99.111C307.59,99.111 321.96,83.645 321.96,64.595Z" style="fill:rgb(83,78,113);"/>
    </g>
    <g transform="matrix(1.0439,0,0,1.0088,-11.2133,-28.1707)">
        <rect x="17.216" y="66.701" width="305.668" height="29.733" style="fill:rgb(83,78,113);"/>
    </g>
    <g transform="matrix(1.00685,0,0,1.51509,0.235423,-64.5675)">
        <rect x="7.045" y="86.959" width="315.715" height="6.009" style="fill:rgb(215,219,194);"/>
    </g>
    <g transform="matrix(1,0,0,1,3.99099,-14.2612)">
        <g transform="matrix(0.593473,0.0652083,-0.0647814,0.589588,83.4378,135.895)">
            <path d="M106.816,21.102L107.086,21.076L107.357,21.053L107.629,21.034L107.902,21.018L108.175,21.006L108.449,20.997L108.724,20.992L108.994,20.99L109.369,20.991L109.737,20.994L110.103,20.999L110.468,21.006L110.832,21.015L111.195,21.026L111.557,21.04L111.917,21.056L112.276,21.075L112.634,21.097L112.99,21.121L113.345,21.148L113.699,21.178L114.051,21.211L114.402,21.248L114.751,21.287L115.099,21.33L115.445,21.377L115.789,21.427L116.132,21.481L116.474,21.539L116.814,21.601L117.152,21.668L117.488,21.738L117.823,21.813L118.156,21.893L118.487,21.977L118.817,22.067L119.144,22.161L119.469,22.26L119.793,22.366L120.107,22.474L120.273,22.534L120.433,22.592L120.592,22.653L120.75,22.715L120.907,22.778L121.064,22.843L121.22,22.91L121.376,22.978L121.531,23.047L121.685,23.119L121.839,23.192L121.992,23.266L122.144,23.343L122.295,23.421L122.446,23.5L122.596,23.582L122.745,23.665L122.894,23.75L123.041,23.837L123.187,23.926L123.333,24.016L123.478,24.109L123.621,24.203L123.764,24.299L123.906,24.397L124.046,24.497L124.186,24.599L124.325,24.703L124.462,24.808L124.598,24.916L124.733,25.025L124.867,25.137L124.999,25.25L125.131,25.366L125.261,25.483L125.389,25.603L125.516,25.724L125.642,25.847L125.766,25.972L125.889,26.099L126.01,26.228L126.13,26.359L126.248,26.492L126.364,26.627L126.479,26.764L126.592,26.902L126.704,27.043L126.814,27.185L126.922,27.329L127.028,27.475L127.132,27.623L127.235,27.772L127.336,27.924L127.435,28.077L127.532,28.232L127.627,28.388L127.72,28.547L127.812,28.706L127.901,28.868L127.989,29.031L128.074,29.196L128.158,29.363L128.24,29.531L128.289,29.636L128.3,29.658L128.319,29.693L128.337,29.726L128.357,29.759L128.377,29.792L128.397,29.824L128.418,29.855L128.44,29.886L128.462,29.916L128.485,29.946L128.508,29.975L128.532,30.003L128.556,30.032L128.581,30.059L128.606,30.086L128.632,30.113L128.658,30.138L128.685,30.163L128.712,30.188L128.74,30.213L128.768,30.236L128.797,30.259L128.826,30.282L128.855,30.304L128.886,30.325L128.916,30.346L128.947,30.366L128.978,30.385L129.009,30.404L129.041,30.422L129.074,30.44L129.106,30.457L129.139,30.473L129.173,30.489L129.206,30.504L129.24,30.518L129.274,30.532L129.309,30.545L129.343,30.557L129.378,30.568L129.413,30.579L129.448,30.589L129.484,30.599L129.52,30.608L129.556,30.616L129.591,30.623L129.627,30.629L129.664,30.635L129.7,30.64L129.737,30.645L129.774,30.648L129.811,30.651L129.847,30.653L129.884,30.655L129.922,30.656L129.959,30.655L129.997,30.655L130.034,30.653L130.072,30.65L130.109,30.647L130.147,30.643L130.186,30.638L130.224,30.632L130.291,30.621L130.768,30.538L131.264,30.456L131.759,30.379L132.252,30.306L132.744,30.237L133.234,30.173L133.724,30.114L134.212,30.058L134.699,30.008L135.185,29.962L135.669,29.92L136.153,29.884L136.635,29.851L137.116,29.824L137.595,29.801L138.074,29.782L138.551,29.768L139.027,29.759L139.502,29.755L139.975,29.755L140.447,29.76L140.918,29.77L141.388,29.785L141.857,29.804L142.324,29.828L142.79,29.857L143.255,29.891L143.718,29.929L144.18,29.973L144.641,30.021L145.101,30.074L145.559,30.132L146.016,30.195L146.472,30.263L146.926,30.336L147.379,30.414L147.831,30.496L148.281,30.584L148.73,30.676L149.178,30.774L149.624,30.876L150.069,30.984L150.512,31.097L150.954,31.214L151.394,31.337L151.834,31.464L152.271,31.597L152.707,31.734L153.142,31.877L153.575,32.025L154.007,32.178L154.437,32.335L154.865,32.498L155.292,32.666L155.718,32.839L156.142,33.017L156.564,33.2L156.985,33.388L157.404,33.581L157.822,33.779L158.238,33.983L158.652,34.191L159.065,34.404L159.476,34.622L159.886,34.846L160.294,35.074L160.7,35.307L161.105,35.546L161.508,35.789L161.909,36.038L162.309,36.291L162.707,36.549L163.103,36.813L163.498,37.081L163.891,37.355L164.282,37.633L164.672,37.916L165.06,38.205L165.446,38.498L165.831,38.796L166.214,39.099L166.595,39.407L166.975,39.72L167.353,40.039L167.73,40.361L168.105,40.689L168.478,41.022L168.85,41.36L169.22,41.703L169.588,42.05L169.955,42.403L170.32,42.76L170.684,43.123L171.046,43.49L171.406,43.863L171.765,44.24L172.123,44.622L172.479,45.009L172.833,45.401L173.186,45.798L173.537,46.2L173.887,46.607L174.235,47.018L174.582,47.435L174.928,47.856L175.271,48.283L175.614,48.714L175.955,49.151L176.295,49.592L176.633,50.038L176.969,50.49L177.305,50.946L177.639,51.407L177.971,51.873L178.302,52.344L178.632,52.821L178.961,53.302L179.288,53.788L179.614,54.279L179.938,54.775L180.262,55.276L180.583,55.782L180.904,56.293L181.223,56.809L181.542,57.331L181.858,57.857L182.174,58.388L182.488,58.925L182.801,59.466L183.113,60.013L183.424,60.564L183.733,61.121L184.042,61.682L184.349,62.249L184.655,62.821L184.96,63.398L185.263,63.981L185.566,64.568L185.867,65.161L186.167,65.758L186.467,66.361L186.765,66.969L187.061,67.582L187.357,68.2L187.652,68.824L187.946,69.453L188.238,70.087L188.53,70.726L188.82,71.37L189.11,72.02L189.398,72.675L189.686,73.335L189.972,74L190.257,74.671L190.542,75.347L190.825,76.028L191.108,76.715L191.389,77.407L191.67,78.104L191.949,78.807L192.228,79.514L192.505,80.228L192.782,80.946L193.058,81.67L193.332,82.4L193.606,83.134L193.879,83.874L194.151,84.62L194.422,85.371L194.693,86.127L194.962,86.889L195.231,87.656L195.498,88.429L195.765,89.207L196.031,89.99L196.296,90.78L196.56,91.574L196.824,92.374L197.086,93.18L197.348,93.991L197.609,94.807L197.869,95.629L198.128,96.457L198.387,97.29L198.644,98.129L198.901,98.973L199.157,99.823L199.413,100.679L199.667,101.54L199.921,102.406L200.174,103.279L200.427,104.157L200.678,105.04L200.929,105.929L201.179,106.824L201.428,107.725L201.677,108.631L201.925,109.543L202.172,110.46L202.419,111.383L202.665,112.312L202.91,113.247L203.154,114.187L203.398,115.133L203.641,116.085L203.883,117.042L204.125,118.006L204.366,118.975L204.607,119.95L204.846,120.93L205.085,121.917L205.324,122.909L205.562,123.907L205.799,124.91L206.036,125.92L206.272,126.936L206.507,127.957L206.742,128.984L206.976,130.017L207.21,131.056L207.443,132.101L207.675,133.151L207.907,134.208L208.138,135.27L208.369,136.338L208.599,137.413L208.829,138.493L209.058,139.579L209.286,140.671L209.514,141.769L209.741,142.873L209.968,143.983L210.195,145.099L210.42,146.221L210.646,147.348L210.871,148.482L211.095,149.622L211.319,150.768L211.542,151.92L211.765,153.078L211.987,154.242L212.209,155.412L212.225,155.498L221.815,109.025L222.181,108.117L222.437,107.492L222.693,106.877L222.948,106.272L223.203,105.678L223.458,105.095L223.713,104.521L223.968,103.958L224.222,103.406L224.477,102.863L224.731,102.331L224.985,101.81L225.239,101.298L225.494,100.797L225.748,100.305L226.003,99.824L226.257,99.353L226.512,98.892L226.767,98.441L227.021,98.004L227.151,97.783L227.279,97.569L227.408,97.357L227.536,97.147L227.665,96.941L227.793,96.736L227.922,96.534L228.052,96.334L228.181,96.137L228.311,95.942L228.44,95.75L228.571,95.56L228.701,95.372L228.832,95.187L228.963,95.004L229.094,94.824L229.226,94.646L229.358,94.47L229.49,94.297L229.623,94.126L229.756,93.957L229.89,93.791L230.025,93.627L230.159,93.466L230.295,93.307L230.431,93.15L230.567,92.996L230.704,92.844L230.842,92.694L230.981,92.546L231.12,92.401L231.26,92.259L231.401,92.119L231.543,91.981L231.686,91.845L231.829,91.712L231.974,91.582L232.119,91.454L232.266,91.328L232.414,91.205L232.563,91.084L232.713,90.966L232.864,90.85L233.017,90.737L233.171,90.627L233.326,90.519L233.483,90.414L233.641,90.312L233.801,90.212L233.962,90.115L234.125,90.022L234.289,89.931L234.455,89.844L234.623,89.759L234.792,89.679L234.962,89.601L235.135,89.527L235.31,89.456L235.485,89.389L235.663,89.325L235.841,89.266L236.022,89.21L236.204,89.159L236.388,89.111L236.572,89.068L236.758,89.029L236.945,88.995L237.133,88.965L237.323,88.94L237.513,88.919L237.703,88.903L237.894,88.892L238.086,88.886L238.277,88.885L238.469,88.888L238.661,88.897L238.852,88.91L239.043,88.928L239.233,88.951L239.423,88.979L239.611,89.012L239.798,89.049L239.985,89.091L240.17,89.138L240.354,89.189L240.536,89.244L240.716,89.304L240.895,89.368L241.072,89.436L241.247,89.507L241.42,89.583L241.591,89.662L241.76,89.745L241.927,89.832L242.093,89.922L242.256,90.015L242.417,90.112L242.576,90.211L242.733,90.314L242.888,90.42L243.042,90.529L243.193,90.64L243.342,90.754L243.49,90.871L243.636,90.99L243.779,91.112L243.922,91.237L244.063,91.364L244.202,91.494L244.339,91.626L244.475,91.76L244.61,91.897L244.743,92.036L244.875,92.178L245.005,92.322L245.134,92.468L245.262,92.616L245.389,92.767L245.514,92.92L245.639,93.075L245.762,93.233L245.885,93.393L246.006,93.554L246.126,93.719L246.246,93.886L246.364,94.054L246.482,94.226L246.599,94.399L246.715,94.575L246.83,94.753L246.945,94.933L247.059,95.115L247.172,95.3L247.284,95.487L247.396,95.677L247.507,95.869L247.618,96.063L247.728,96.259L247.837,96.458L247.946,96.659L248.054,96.863L248.162,97.069L248.269,97.277L248.376,97.488L248.482,97.701L248.587,97.916L248.693,98.134L248.798,98.354L248.902,98.577L249.006,98.802L249.11,99.029L249.215,99.264L249.418,99.727L249.622,100.204L249.824,100.691L250.025,101.188L250.224,101.695L250.423,102.212L250.62,102.739L250.816,103.276L251.011,103.823L251.205,104.381L251.397,104.948L251.589,105.526L251.78,106.115L251.969,106.713L252.158,107.322L252.346,107.941L252.533,108.571L252.719,109.211L252.904,109.862L253.088,110.523L253.272,111.194L253.454,111.876L253.636,112.569L253.817,113.272L253.997,113.986L254.177,114.71L254.355,115.445L254.533,116.19L254.71,116.946L254.887,117.713L255.062,118.49L255.305,119.586L256.315,155.947L256.318,156.541L256.324,157.089L256.334,157.646L256.348,158.21L256.365,158.782L256.386,159.361L256.411,159.947L256.439,160.54L256.47,161.139L256.504,161.744L256.541,162.355L256.58,162.972L256.622,163.594L256.667,164.221L256.713,164.854L256.762,165.491L256.813,166.132L256.866,166.777L256.976,168.083L257.092,169.401L257.211,170.732L257.459,173.427L257.584,174.786L257.708,176.151L257.831,177.521L257.95,178.893L258.008,179.581L258.064,180.268L258.12,180.955L258.173,181.642L258.225,182.328L258.275,183.014L258.323,183.699L258.369,184.383L258.412,185.066L258.453,185.747L258.491,186.427L258.526,187.105L258.558,187.781L258.587,188.455L258.613,189.126L258.635,189.796L258.653,190.462L258.668,191.126L258.678,191.787L258.684,192.444L258.686,193.099L258.683,193.75L258.675,194.397L258.663,195.037L258.655,195.361L258.645,195.68L258.634,195.999L258.622,196.316L258.609,196.632L258.594,196.947L258.577,197.261L258.56,197.574L258.54,197.886L258.519,198.197L258.497,198.506L258.473,198.815L258.448,199.122L258.421,199.428L258.392,199.733L258.362,200.036L258.329,200.339L258.296,200.64L258.26,200.939L258.223,201.238L258.184,201.535L258.143,201.831L258.1,202.125L258.055,202.418L258.008,202.71L257.959,203L257.909,203.289L257.856,203.577L257.801,203.863L257.744,204.147L257.685,204.43L257.624,204.712L257.56,204.992L257.494,205.271L257.426,205.548L257.355,205.823L257.283,206.097L257.207,206.37L257.129,206.64L257.049,206.91L256.966,207.177L256.88,207.443L256.792,207.707L256.701,207.97L256.607,208.23L256.51,208.489L256.411,208.746L256.308,209.002L256.203,209.255L256.094,209.507L255.983,209.757L255.868,210.004L255.75,210.25L255.628,210.493L255.504,210.735L255.376,210.974L255.244,211.212L255.109,211.447L254.97,211.679L254.828,211.91L254.682,212.137L254.533,212.363L254.379,212.585L254.222,212.805L254.061,213.023L253.896,213.237L253.727,213.449L253.554,213.657L253.378,213.863L253.197,214.065L253.012,214.264L252.823,214.459L252.63,214.651L252.433,214.84L252.232,215.024L252.027,215.205L251.818,215.382L251.605,215.555L251.388,215.724L251.167,215.888L250.943,216.048L250.714,216.204L250.482,216.355L250.246,216.502L250.006,216.644L249.763,216.781L249.516,216.913L249.266,217.04L249.013,217.163L248.755,217.28L248.495,217.392L248.232,217.499L247.966,217.602L247.696,217.698L247.424,217.79L247.148,217.877L246.871,217.958L246.59,218.034L246.306,218.105L246.02,218.17L245.731,218.231L245.44,218.286L245.147,218.336L244.85,218.381L244.552,218.421L244.25,218.455L243.947,218.485L243.641,218.509L243.332,218.528L243.022,218.543L242.708,218.552L242.393,218.556L242.075,218.555L241.755,218.55L241.432,218.539L241.107,218.524L240.779,218.503L240.449,218.478L240.117,218.448L239.782,218.413L239.444,218.373L239.104,218.328L238.762,218.279L238.416,218.224L238.068,218.165L237.717,218.101L237.364,218.033L237.007,217.959L236.648,217.881L236.286,217.798L235.922,217.71L235.554,217.617L235.183,217.52L234.809,217.417L234.433,217.31L234.279,217.265L234.122,217.241L233.769,217.189L233.42,217.142L233.076,217.099L232.736,217.06L232.401,217.026L232.07,216.995L231.744,216.969L231.422,216.946L231.105,216.928L230.792,216.913L230.483,216.903L230.18,216.896L229.881,216.893L229.586,216.894L229.297,216.899L229.011,216.908L228.73,216.92L228.454,216.936L228.183,216.956L227.916,216.979L227.654,217.006L227.396,217.036L227.143,217.07L226.894,217.108L226.65,217.148L226.411,217.192L226.169,217.241L226.06,217.264L225.945,217.29L225.832,217.317L225.719,217.344L225.608,217.372L225.497,217.401L225.389,217.43L225.28,217.461L225.173,217.492L225.067,217.524L224.962,217.556L224.859,217.589L224.756,217.624L224.654,217.658L224.554,217.694L224.454,217.73L224.355,217.767L224.257,217.805L224.161,217.843L224.066,217.883L223.971,217.923L223.877,217.963L223.784,218.005L223.692,218.047L223.602,218.089L223.512,218.133L223.423,218.177L223.335,218.222L223.248,218.267L223.162,218.313L223.076,218.36L222.991,218.408L222.908,218.456L222.826,218.505L222.743,218.555L222.662,218.605L222.582,218.656L222.502,218.708L222.423,218.761L222.345,218.814L222.268,218.868L222.191,218.923L222.116,218.978L222.04,219.035L221.966,219.092L221.892,219.149L221.819,219.208L221.747,219.267L221.675,219.328L221.604,219.388L221.534,219.45L221.464,219.512L221.395,219.576L221.326,219.64L221.259,219.705L221.192,219.771L221.125,219.837L221.059,219.905L220.993,219.973L220.928,220.043L220.864,220.113L220.8,220.184L220.737,220.256L220.674,220.329L220.612,220.403L220.551,220.478L220.489,220.554L220.429,220.631L220.369,220.709L220.309,220.788L220.25,220.867L220.192,220.948L220.134,221.03L220.077,221.113L220.02,221.197L219.963,221.282L219.908,221.368L219.852,221.456L219.798,221.544L219.743,221.634L219.69,221.724L219.637,221.816L219.584,221.909L219.532,222.003L219.48,222.098L219.429,222.195L219.379,222.292L219.329,222.391L219.279,222.491L219.23,222.592L219.182,222.694L219.135,222.798L219.087,222.903L219.041,223.008L218.995,223.116L218.949,223.224L218.905,223.334L218.863,223.438L218.774,223.671L218.69,223.901L218.608,224.137L218.529,224.378L218.452,224.624L218.378,224.875L218.306,225.132L218.238,225.393L218.172,225.66L218.108,225.931L218.048,226.209L217.99,226.491L217.936,226.779L217.884,227.071L217.835,227.369L217.79,227.672L217.747,227.981L217.707,228.294L217.671,228.613L217.638,228.937L217.607,229.266L217.58,229.6L217.557,229.94L217.536,230.284L217.519,230.634L217.505,230.989L217.494,231.349L217.487,231.714L217.483,232.084L217.482,232.459L217.485,232.839L217.491,233.224L217.501,233.615L217.514,234.01L217.531,234.41L217.551,234.815L217.574,235.225L217.601,235.64L217.632,236.06L217.666,236.486L217.704,236.915L217.745,237.35L217.789,237.79L217.838,238.234L217.889,238.684L217.945,239.138L218.004,239.597L218.066,240.061L218.132,240.53L218.202,241.003L218.242,241.268L218.266,241.347L218.353,241.663L218.397,241.832L218.437,241.993L218.476,242.153L218.513,242.313L218.548,242.474L218.581,242.633L218.613,242.792L218.642,242.952L218.671,243.11L218.697,243.269L218.721,243.427L218.744,243.585L218.765,243.743L218.784,243.9L218.801,244.058L218.816,244.215L218.83,244.371L218.841,244.528L218.851,244.684L218.858,244.84L218.864,244.995L218.868,245.151L218.869,245.306L218.869,245.461L218.867,245.615L218.862,245.769L218.856,245.923L218.847,246.076L218.837,246.229L218.824,246.383L218.81,246.535L218.793,246.686L218.774,246.838L218.753,246.989L218.729,247.139L218.704,247.289L218.676,247.438L218.646,247.587L218.614,247.735L218.58,247.882L218.544,248.029L218.505,248.176L218.465,248.32L218.422,248.465L218.377,248.609L218.33,248.751L218.28,248.893L218.229,249.034L218.175,249.174L218.119,249.314L218.061,249.451L218.001,249.588L217.939,249.725L217.875,249.859L217.809,249.992L217.741,250.125L217.671,250.256L217.599,250.385L217.525,250.514L217.449,250.641L217.371,250.767L217.292,250.892L217.211,251.015L217.128,251.136L217.043,251.257L216.957,251.376L216.868,251.493L216.779,251.609L216.688,251.723L216.595,251.837L216.5,251.948L216.405,252.058L216.307,252.167L216.208,252.274L216.109,252.379L216.007,252.483L215.904,252.586L215.8,252.688L215.695,252.787L215.589,252.885L215.481,252.982L215.372,253.077L215.262,253.171L215.151,253.263L215.039,253.354L214.918,253.45L214.696,253.619L214.462,253.788L214.224,253.953L213.983,254.112L213.738,254.265L213.49,254.414L213.238,254.558L212.983,254.698L212.724,254.833L212.463,254.963L212.198,255.089L211.93,255.211L211.659,255.329L211.385,255.443L211.108,255.553L210.828,255.66L210.545,255.763L210.259,255.862L209.971,255.958L209.679,256.05L209.384,256.139L209.087,256.225L208.787,256.308L208.483,256.388L208.177,256.465L207.868,256.54L207.557,256.611L207.242,256.679L206.924,256.745L206.604,256.809L206.281,256.869L205.955,256.927L205.626,256.983L205.294,257.036L204.96,257.087L204.623,257.135L204.282,257.181L203.94,257.225L203.594,257.267L203.245,257.306L202.894,257.343L202.541,257.378L202.184,257.411L201.825,257.442L201.463,257.471L201.098,257.498L200.73,257.523L200.36,257.546L199.988,257.567L199.613,257.586L199.235,257.604L198.855,257.619L198.471,257.633L198.086,257.645L197.698,257.655L197.307,257.664L196.914,257.671L196.519,257.676L196.121,257.679L195.721,257.681L195.318,257.682L194.913,257.68L194.506,257.678L194.096,257.673L193.684,257.668L193.27,257.66L192.854,257.651L192.435,257.641L192.014,257.63L191.591,257.617L191.164,257.602L190.309,257.569L189.445,257.531L188.572,257.488L187.691,257.44L186.803,257.387L185.907,257.33L185.005,257.268L184.095,257.202L183.179,257.132L182.257,257.058L181.328,256.981L180.394,256.899L179.453,256.815L178.508,256.727L177.557,256.635L176.601,256.541L175.641,256.444L174.676,256.345L173.707,256.242L172.734,256.138L171.757,256.031L170.777,255.922L169.794,255.812L168.807,255.699L166.828,255.47L164.839,255.236L162.844,254.998L160.845,254.757L158.844,254.516L154.842,254.033L152.846,253.794L150.857,253.559L148.875,253.329L147.89,253.216L146.906,253.105L145.926,252.996L144.949,252.889L143.976,252.784L143.007,252.681L142.042,252.58L141.082,252.482L140.126,252.387L139.176,252.295L138.232,252.206L137.293,252.12L136.36,252.037L135.433,251.958L134.513,251.883L133.599,251.811L132.693,251.743L131.795,251.68L130.904,251.62L130.021,251.565L129.146,251.515L128.28,251.469L127.423,251.428L126.575,251.392L125.735,251.362L125.321,251.348L124.738,251.331L100.804,248.209L99.776,247.518L99.389,247.254L99.009,246.989L98.635,246.724L98.267,246.459L97.906,246.193L97.551,245.927L97.202,245.661L96.86,245.394L96.523,245.127L96.194,244.859L95.87,244.591L95.553,244.322L95.242,244.052L94.938,243.782L94.639,243.511L94.347,243.24L94.061,242.967L93.782,242.694L93.509,242.419L93.242,242.144L92.982,241.867L92.728,241.589L92.48,241.31L92.239,241.03L92.008,240.754L91.889,240.607L91.776,240.466L91.664,240.323L91.554,240.181L91.445,240.038L91.339,239.895L91.233,239.751L91.13,239.607L91.028,239.462L90.928,239.318L90.83,239.172L90.733,239.026L90.638,238.879L90.545,238.733L90.453,238.586L90.363,238.437L90.275,238.289L90.189,238.14L90.105,237.991L90.022,237.841L89.941,237.691L89.862,237.539L89.785,237.388L89.71,237.236L89.636,237.084L89.565,236.93L89.495,236.777L89.428,236.623L89.362,236.468L89.298,236.313L89.237,236.157L89.177,236L89.119,235.844L89.064,235.686L89.01,235.528L88.959,235.37L88.91,235.211L88.862,235.052L88.817,234.892L88.775,234.732L88.734,234.571L88.696,234.409L88.66,234.248L88.626,234.086L88.594,233.924L88.565,233.761L88.538,233.597L88.513,233.434L88.491,233.271L88.471,233.107L88.454,232.942L88.439,232.778L88.426,232.613L88.416,232.449L88.408,232.284L88.402,232.119L88.399,231.954L88.399,231.79L88.401,231.625L88.405,231.46L88.412,231.295L88.421,231.131L88.433,230.966L88.447,230.802L88.464,230.638L88.483,230.474L88.504,230.311L88.528,230.148L88.555,229.984L88.583,229.822L88.615,229.66L88.648,229.498L88.684,229.338L88.722,229.177L88.763,229.016L88.805,228.857L88.85,228.698L88.898,228.54L88.947,228.382L88.999,228.225L89.053,228.068L89.109,227.912L89.168,227.757L89.228,227.603L89.291,227.449L89.355,227.295L89.422,227.143L89.491,226.991L89.562,226.84L89.634,226.691L89.709,226.541L89.786,226.392L89.865,226.244L89.945,226.097L90.028,225.95L90.113,225.805L90.199,225.66L90.287,225.516L90.377,225.372L90.468,225.229L90.562,225.087L90.657,224.946L90.755,224.805L90.853,224.665L90.954,224.526L91.056,224.388L91.16,224.25L91.266,224.113L91.373,223.976L91.482,223.841L91.593,223.706L91.705,223.571L91.819,223.438L91.935,223.304L92.052,223.171L92.171,223.04L92.291,222.908L92.413,222.777L92.537,222.647L92.662,222.517L92.789,222.388L92.922,222.255L93.179,222.004L93.447,221.751L93.721,221.5L94.001,221.25L94.288,221.002L94.58,220.757L94.879,220.512L95.184,220.27L95.496,220.029L95.813,219.79L96.137,219.552L96.466,219.315L96.802,219.08L97.144,218.847L97.493,218.614L97.847,218.383L98.208,218.153L98.575,217.924L98.948,217.696L99.328,217.469L99.713,217.243L100.105,217.018L100.504,216.795L100.908,216.572L101.319,216.35L101.736,216.129L102.159,215.909L102.589,215.689L103.025,215.471L103.468,215.253L103.917,215.036L104.372,214.82L104.834,214.604L105.302,214.39L105.777,214.176L106.257,213.962L106.745,213.75L107.239,213.537L107.739,213.326L108.246,213.115L109.119,212.758L160.23,205.091L160.193,205.074L159.74,204.869L159.282,204.665L158.818,204.463L158.348,204.264L157.873,204.066L157.393,203.87L156.907,203.676L156.416,203.484L155.92,203.294L155.419,203.105L154.913,202.918L154.402,202.733L153.886,202.55L153.366,202.368L152.84,202.188L152.31,202.009L151.776,201.832L151.237,201.657L150.693,201.482L150.145,201.31L149.593,201.138L149.036,200.968L148.475,200.799L147.911,200.631L147.342,200.465L146.769,200.3L146.192,200.135L145.611,199.972L145.027,199.81L144.439,199.649L143.847,199.488L143.252,199.329L142.653,199.17L142.051,199.012L141.445,198.855L140.836,198.698L140.224,198.542L139.61,198.388L138.369,198.078L137.117,197.771L135.853,197.464L134.579,197.159L133.295,196.855L132,196.55L130.697,196.245L128.062,195.633L125.397,195.015L124.054,194.703L122.704,194.388L121.349,194.069L119.988,193.747L118.622,193.422L117.252,193.091L115.878,192.756L114.502,192.416L113.811,192.243L113.12,192.069L112.429,191.894L111.737,191.717L111.045,191.538L110.353,191.358L109.66,191.176L108.966,190.992L108.273,190.806L107.579,190.619L106.885,190.429L106.191,190.237L105.497,190.044L104.803,189.848L104.109,189.65L103.415,189.449L102.721,189.247L102.028,189.042L101.335,188.834L100.642,188.624L99.95,188.412L99.259,188.197L98.568,187.979L97.877,187.759L97.188,187.536L96.499,187.31L95.811,187.081L95.124,186.85L94.437,186.615L93.752,186.377L93.068,186.137L92.384,185.893L91.702,185.646L91.022,185.395L90.342,185.142L89.664,184.885L88.987,184.624L88.312,184.36L87.638,184.092L86.966,183.821L86.296,183.547L85.627,183.268L84.96,182.986L84.295,182.699L83.632,182.409L82.97,182.115L82.311,181.817L81.654,181.515L80.999,181.209L80.346,180.898L79.695,180.584L79.047,180.265L78.401,179.941L77.758,179.613L77.12,179.282L76.797,179.113L76.479,178.944L76.16,178.774L75.843,178.602L75.526,178.43L75.21,178.256L74.895,178.081L74.58,177.905L74.266,177.728L73.952,177.549L73.64,177.37L73.328,177.189L73.017,177.007L72.706,176.823L72.397,176.639L72.088,176.453L71.78,176.265L71.472,176.077L71.166,175.887L70.86,175.696L70.555,175.504L70.251,175.311L69.948,175.116L69.646,174.92L69.344,174.722L69.043,174.523L68.743,174.323L68.444,174.122L68.146,173.919L67.849,173.715L67.553,173.509L67.257,173.302L66.963,173.094L66.669,172.884L66.376,172.673L66.085,172.46L65.794,172.247L65.504,172.031L65.215,171.814L64.927,171.596L64.64,171.377L64.354,171.156L64.07,170.933L63.786,170.709L63.503,170.484L63.221,170.257L62.94,170.029L62.66,169.799L62.381,169.567L62.104,169.335L61.827,169.1L61.552,168.864L61.277,168.627L61.004,168.388L60.732,168.148L60.461,167.906L60.191,167.662L59.922,167.417L59.654,167.171L59.388,166.922L59.122,166.673L58.858,166.421L58.595,166.168L58.333,165.914L58.073,165.658L57.813,165.4L57.555,165.141L57.298,164.88L57.043,164.617L56.788,164.353L56.535,164.087L56.283,163.82L56.033,163.55L55.783,163.28L55.535,163.007L55.289,162.733L55.043,162.457L54.799,162.18L54.557,161.901L54.315,161.62L54.075,161.337L53.837,161.053L53.599,160.767L53.363,160.48L53.129,160.19L52.896,159.899L52.664,159.606L52.434,159.312L52.205,159.015L51.978,158.717L51.752,158.418L51.527,158.116L51.305,157.813L51.083,157.508L50.863,157.201L50.645,156.892L50.428,156.582L50.212,156.27L49.998,155.956L49.786,155.64L49.575,155.323L49.366,155.004L49.158,154.682L48.952,154.359L48.747,154.035L48.544,153.708L48.343,153.38L48.143,153.05L47.945,152.717L47.749,152.384L47.554,152.048L47.361,151.71L47.169,151.371L46.979,151.03L46.791,150.686L46.605,150.341L46.42,149.995L46.237,149.646L46.055,149.295L45.875,148.943L45.698,148.588L45.521,148.232L45.347,147.874L45.174,147.514L45.003,147.152L44.834,146.788L44.666,146.422L44.501,146.054L44.337,145.685L44.175,145.313L44.015,144.94L43.856,144.564L43.7,144.187L43.545,143.808L43.392,143.427L43.241,143.043L43.091,142.658L42.944,142.271L42.799,141.882L42.655,141.491L42.513,141.098L42.373,140.703L42.235,140.306L42.099,139.908L41.965,139.507L41.833,139.104L41.703,138.699L41.575,138.292L41.448,137.883L41.324,137.473L41.201,137.06L41.081,136.645L40.962,136.228L40.846,135.809L40.731,135.388L40.619,134.965L40.508,134.54L40.399,134.113L40.293,133.684L40.188,133.253L40.086,132.819L39.985,132.384L39.887,131.947L39.791,131.507L39.696,131.066L39.604,130.622L39.514,130.177L39.426,129.729L39.34,129.279L39.256,128.827L39.174,128.373L39.094,127.917L39.017,127.458L38.941,126.998L38.868,126.535L38.797,126.071L38.727,125.604L38.66,125.135L38.596,124.664L38.533,124.191L38.472,123.715L38.414,123.238L38.358,122.758L38.304,122.276L38.252,121.792L38.202,121.305L38.155,120.817L38.11,120.326L38.067,119.833L38.026,119.338L37.987,118.841L37.951,118.341L37.917,117.84L37.885,117.336L37.855,116.829L37.828,116.321L37.803,115.81L37.78,115.297L37.759,114.782L37.741,114.264L37.725,113.744L37.711,113.222L37.7,112.698L37.691,112.171L37.684,111.642L37.679,111.111L37.679,111.055L37.516,110.961L37.344,110.86L37.172,110.757L37.002,110.653L36.833,110.547L36.665,110.44L36.498,110.332L36.332,110.222L36.168,110.111L36.005,109.998L35.842,109.884L35.681,109.768L35.521,109.651L35.362,109.533L35.205,109.414L35.048,109.293L34.893,109.17L34.739,109.047L34.587,108.922L34.435,108.796L34.285,108.668L34.136,108.54L33.988,108.41L33.842,108.278L33.696,108.146L33.552,108.012L33.41,107.877L33.268,107.741L33.128,107.604L32.989,107.465L32.852,107.326L32.715,107.185L32.58,107.043L32.447,106.9L32.314,106.755L32.183,106.61L32.054,106.463L31.925,106.316L31.798,106.167L31.673,106.017L31.549,105.866L31.426,105.714L31.304,105.561L31.184,105.407L31.065,105.252L30.948,105.095L30.832,104.938L30.718,104.78L30.605,104.621L30.493,104.46L30.383,104.299L30.274,104.137L30.166,103.974L30.061,103.81L29.956,103.645L29.853,103.479L29.752,103.312L29.652,103.144L29.553,102.976L29.456,102.806L29.36,102.636L29.266,102.464L29.174,102.292L29.083,102.119L28.993,101.945L28.905,101.771L28.819,101.595L28.734,101.419L28.65,101.242L28.568,101.064L28.488,100.885L28.409,100.705L28.332,100.525L28.257,100.344L28.183,100.163L28.11,99.98L28.04,99.797L27.97,99.613L27.903,99.428L27.837,99.243L27.773,99.057L27.71,98.871L27.649,98.683L27.59,98.495L27.532,98.307L27.476,98.117L27.422,97.928L27.369,97.737L27.318,97.546L27.269,97.355L27.221,97.162L27.175,96.97L27.131,96.776L27.089,96.583L27.048,96.388L27.009,96.193L26.972,95.998L26.936,95.802L26.903,95.606L26.871,95.409L26.84,95.211L26.812,95.013L26.785,94.815L26.76,94.617L26.737,94.418L26.716,94.218L26.697,94.018L26.679,93.818L26.663,93.617L26.649,93.416L26.637,93.215L26.627,93.013L26.619,92.811L26.612,92.609L26.607,92.406L26.605,92.203L26.604,91.997L26.605,91.718L26.611,91.437L26.62,91.157L26.632,90.877L26.648,90.599L26.668,90.321L26.691,90.044L26.718,89.768L26.748,89.493L26.781,89.218L26.818,88.945L26.859,88.673L26.902,88.402L26.949,88.132L27,87.862L27.053,87.595L27.11,87.328L27.171,87.062L27.234,86.798L27.301,86.535L27.37,86.273L27.443,86.012L27.52,85.753L27.599,85.495L27.681,85.238L27.766,84.983L27.855,84.729L27.946,84.477L28.041,84.225L28.138,83.976L28.238,83.728L28.342,83.481L28.448,83.236L28.557,82.993L28.669,82.751L28.783,82.511L28.901,82.272L29.021,82.035L29.144,81.8L29.27,81.566L29.399,81.334L29.53,81.104L29.664,80.875L29.8,80.649L29.939,80.424L30.081,80.201L30.225,79.98L30.372,79.76L30.521,79.543L30.673,79.327L30.827,79.114L30.984,78.902L31.144,78.692L31.305,78.484L31.469,78.278L31.636,78.075L31.805,77.873L31.976,77.673L32.149,77.476L32.325,77.28L32.503,77.087L32.683,76.895L32.866,76.706L33.05,76.519L33.237,76.335L33.426,76.152L33.617,75.972L33.811,75.794L34.006,75.618L34.204,75.445L34.403,75.274L34.605,75.105L34.809,74.939L35.014,74.775L35.222,74.613L35.432,74.454L35.643,74.298L35.857,74.143L36.072,73.992L36.289,73.842L36.508,73.696L36.729,73.552L36.952,73.41L37.177,73.271L37.403,73.135L37.631,73.001L37.861,72.87L38.093,72.742L38.326,72.617L38.561,72.494L38.797,72.374L39.035,72.256L39.275,72.142L39.517,72.03L39.76,71.921L40.004,71.815L40.25,71.712L40.498,71.612L40.747,71.515L40.997,71.421L41.249,71.33L41.503,71.241L41.757,71.156L42.013,71.074L42.271,70.995L42.529,70.919L42.789,70.847L43.051,70.777L43.313,70.71L43.577,70.647L43.842,70.587L44.108,70.53L44.375,70.477L44.643,70.427L44.912,70.38L45.183,70.336L45.454,70.296L45.727,70.259L46,70.226L46.274,70.196L46.55,70.169L46.826,70.146L47.103,70.126L47.381,70.11L47.659,70.098L47.939,70.089L48.219,70.083L48.5,70.082L48.785,70.084L49.07,70.089L49.354,70.098L49.638,70.111L49.922,70.128L50.206,70.148L50.488,70.172L50.771,70.2L51.053,70.231L51.335,70.266L51.616,70.305L51.896,70.347L52.176,70.393L52.456,70.442L52.734,70.495L53.012,70.552L53.289,70.612L53.565,70.676L53.841,70.744L54.115,70.815L54.389,70.889L54.41,70.895L54.537,70.668L54.732,70.321L54.928,69.977L55.127,69.634L55.327,69.293L55.529,68.953L55.732,68.615L55.938,68.279L56.145,67.945L56.354,67.612L56.564,67.281L56.776,66.952L56.99,66.624L57.206,66.299L57.423,65.975L57.643,65.652L57.863,65.332L58.086,65.013L58.31,64.696L58.536,64.38L58.764,64.067L58.994,63.755L59.225,63.445L59.458,63.137L59.692,62.83L59.929,62.525L60.167,62.222L60.407,61.921L60.648,61.621L60.891,61.323L61.136,61.027L61.383,60.733L61.631,60.441L61.881,60.15L62.133,59.861L62.386,59.574L62.642,59.289L62.898,59.005L63.157,58.723L63.417,58.443L63.679,58.165L63.943,57.889L64.208,57.614L64.475,57.341L64.744,57.07L65.015,56.801L65.287,56.534L65.56,56.268L65.836,56.004L66.113,55.742L66.392,55.482L66.673,55.224L66.955,54.967L67.239,54.712L67.524,54.459L67.812,54.208L68.1,53.959L68.391,53.712L68.683,53.466L68.977,53.222L69.273,52.98L69.57,52.74L69.869,52.502L70.169,52.265L70.472,52.031L70.775,51.798L71.081,51.567L71.388,51.338L71.697,51.11L72.007,50.885L72.319,50.661L72.633,50.44L72.948,50.22L73.265,50.002L73.584,49.785L73.904,49.571L74.226,49.358L74.549,49.148L74.874,48.939L75.201,48.732L75.529,48.526L75.859,48.323L76.191,48.122L76.524,47.922L76.859,47.724L77.195,47.528L77.533,47.334L77.872,47.142L78.213,46.952L78.556,46.763L78.9,46.576L79.246,46.391L79.594,46.208L79.943,46.027L80.293,45.848L80.645,45.67L80.999,45.495L81.355,45.321L81.712,45.149L82.07,44.979L82.43,44.811L82.792,44.644L83.155,44.48L83.52,44.317L83.886,44.156L84.254,43.997L84.623,43.84L84.994,43.684L85.367,43.531L85.741,43.379L86.116,43.229L86.494,43.081L86.872,42.935L87.253,42.791L87.513,42.694L87.512,42.686L87.512,42.496L87.513,42.223L87.519,41.948L87.528,41.673L87.54,41.398L87.556,41.125L87.575,40.852L87.598,40.58L87.624,40.309L87.653,40.039L87.686,39.77L87.723,39.502L87.762,39.235L87.805,38.969L87.851,38.703L87.901,38.439L87.953,38.176L88.009,37.915L88.068,37.654L88.13,37.395L88.196,37.136L88.264,36.879L88.336,36.623L88.411,36.369L88.488,36.116L88.569,35.864L88.653,35.613L88.74,35.364L88.829,35.116L88.922,34.87L89.018,34.625L89.116,34.381L89.218,34.14L89.322,33.899L89.429,33.66L89.539,33.423L89.651,33.187L89.766,32.953L89.884,32.72L90.005,32.489L90.129,32.26L90.255,32.032L90.383,31.806L90.515,31.582L90.649,31.36L90.785,31.139L90.924,30.92L91.066,30.703L91.21,30.488L91.357,30.274L91.506,30.063L91.657,29.853L91.811,29.645L91.967,29.439L92.126,29.235L92.287,29.034L92.45,28.834L92.616,28.636L92.784,28.44L92.954,28.246L93.126,28.054L93.301,27.864L93.478,27.676L93.657,27.491L93.838,27.307L94.022,27.126L94.207,26.947L94.395,26.77L94.585,26.596L94.776,26.423L94.97,26.253L95.166,26.085L95.364,25.92L95.564,25.756L95.766,25.596L95.97,25.437L96.175,25.281L96.383,25.127L96.592,24.976L96.804,24.827L97.017,24.68L97.232,24.537L97.449,24.395L97.667,24.256L97.888,24.12L98.11,23.986L98.334,23.855L98.559,23.727L98.786,23.601L99.015,23.477L99.246,23.357L99.478,23.239L99.712,23.124L99.947,23.012L100.184,22.902L100.423,22.795L100.662,22.691L100.904,22.59L101.147,22.492L101.391,22.397L101.637,22.304L101.884,22.215L102.133,22.128L102.383,22.044L102.634,21.964L102.887,21.886L103.141,21.812L103.396,21.74L103.652,21.672L103.91,21.607L104.168,21.545L104.428,21.486L104.69,21.43L104.952,21.378L105.215,21.328L105.479,21.282L105.745,21.239L106.011,21.2L106.278,21.164L106.547,21.131L106.816,21.102ZM107.119,27.785L106.935,27.81L106.751,27.837L106.569,27.866L106.387,27.898L106.205,27.932L106.024,27.968L105.845,28.007L105.665,28.047L105.487,28.09L105.31,28.135L105.133,28.182L104.957,28.231L104.782,28.283L104.608,28.336L104.435,28.392L104.262,28.449L104.091,28.509L103.92,28.571L103.75,28.635L103.582,28.701L103.414,28.768L103.247,28.838L103.081,28.91L102.916,28.984L102.752,29.06L102.59,29.137L102.428,29.217L102.267,29.299L102.107,29.382L101.949,29.468L101.791,29.555L101.635,29.644L101.48,29.735L101.326,29.828L101.173,29.922L101.021,30.019L100.871,30.117L100.721,30.217L100.573,30.318L100.426,30.422L100.281,30.527L100.136,30.634L99.993,30.742L99.852,30.852L99.712,30.964L99.573,31.078L99.435,31.193L99.299,31.31L99.164,31.428L99.031,31.548L98.899,31.669L98.768,31.792L98.639,31.917L98.512,32.043L98.386,32.17L98.261,32.299L98.138,32.43L98.017,32.562L97.897,32.695L97.779,32.83L97.662,32.966L97.547,33.103L97.434,33.242L97.322,33.382L97.212,33.524L97.104,33.666L96.997,33.81L96.892,33.956L96.789,34.102L96.687,34.25L96.587,34.399L96.489,34.55L96.393,34.701L96.299,34.854L96.206,35.007L96.116,35.162L96.027,35.318L95.94,35.475L95.854,35.633L95.771,35.793L95.69,35.953L95.61,36.114L95.533,36.277L95.457,36.44L95.384,36.605L95.312,36.77L95.242,36.936L95.175,37.104L95.109,37.272L95.045,37.441L94.984,37.611L94.924,37.782L94.867,37.954L94.812,38.126L94.758,38.3L94.707,38.474L94.658,38.649L94.611,38.825L94.566,39.002L94.524,39.18L94.483,39.358L94.445,39.537L94.409,39.717L94.375,39.898L94.344,40.079L94.314,40.261L94.287,40.444L94.262,40.628L94.24,40.812L94.22,40.997L94.202,41.182L94.186,41.369L94.173,41.556L94.162,41.743L94.154,41.931L94.148,42.12L94.144,42.31L94.143,42.504L94.143,42.628L94.145,42.755L94.148,42.883L94.152,43.011L94.157,43.139L94.163,43.266L94.17,43.394L94.178,43.522L94.187,43.649L94.198,43.776L94.209,43.903L94.222,44.031L94.236,44.158L94.251,44.284L94.267,44.411L94.654,47.29L91.685,48.288L91.329,48.41L90.975,48.533L90.623,48.658L90.272,48.785L89.923,48.913L89.575,49.043L89.229,49.174L88.885,49.307L88.542,49.441L88.201,49.578L87.862,49.715L87.524,49.854L87.188,49.995L86.853,50.138L86.52,50.281L86.189,50.427L85.859,50.574L85.531,50.723L85.205,50.873L84.88,51.025L84.556,51.178L84.235,51.333L83.915,51.49L83.596,51.648L83.279,51.807L82.964,51.969L82.651,52.132L82.338,52.296L82.028,52.462L81.719,52.629L81.412,52.799L81.106,52.969L80.802,53.141L80.499,53.315L80.198,53.491L79.899,53.668L79.601,53.846L79.305,54.026L79.01,54.208L78.717,54.391L78.425,54.576L78.135,54.762L77.846,54.95L77.559,55.14L77.274,55.331L76.99,55.524L76.708,55.718L76.427,55.914L76.148,56.111L75.87,56.31L75.594,56.511L75.32,56.713L75.046,56.917L74.775,57.122L74.505,57.329L74.236,57.537L73.969,57.747L73.704,57.959L73.44,58.172L73.178,58.387L72.917,58.603L72.657,58.821L72.4,59.041L72.143,59.262L71.888,59.485L71.635,59.709L71.383,59.935L71.133,60.163L70.884,60.392L70.637,60.623L70.391,60.855L70.146,61.089L69.903,61.325L69.662,61.562L69.422,61.801L69.184,62.041L68.947,62.283L68.711,62.527L68.477,62.772L68.244,63.019L68.013,63.268L67.784,63.518L67.556,63.77L67.329,64.023L67.104,64.278L66.88,64.535L66.658,64.794L66.437,65.054L66.218,65.315L66,65.579L65.784,65.844L65.569,66.11L65.355,66.378L65.143,66.648L64.933,66.92L64.724,67.193L64.516,67.468L64.31,67.745L64.105,68.023L63.902,68.303L63.7,68.584L63.5,68.868L63.301,69.153L63.103,69.439L62.907,69.727L62.713,70.018L62.519,70.309L62.328,70.603L62.138,70.898L61.949,71.194L61.761,71.493L61.576,71.793L61.391,72.095L61.208,72.398L61.027,72.704L60.847,73.01L60.668,73.319L60.491,73.63L60.315,73.942L60.141,74.255L59.968,74.571L59.797,74.888L59.627,75.207L59.458,75.528L59.291,75.85L59.126,76.175L57.549,79.305L54.487,77.978L54.303,77.901L54.119,77.827L53.933,77.755L53.747,77.685L53.56,77.618L53.373,77.554L53.184,77.492L52.995,77.432L52.806,77.375L52.615,77.321L52.424,77.269L52.232,77.219L52.039,77.172L51.846,77.127L51.653,77.085L51.459,77.046L51.264,77.008L51.069,76.974L50.874,76.942L50.677,76.912L50.481,76.885L50.284,76.861L50.087,76.839L49.89,76.82L49.692,76.803L49.494,76.789L49.295,76.777L49.097,76.768L48.898,76.762L48.699,76.758L48.5,76.757L48.304,76.758L48.108,76.762L47.913,76.768L47.719,76.777L47.525,76.788L47.332,76.801L47.14,76.817L46.949,76.836L46.758,76.857L46.568,76.88L46.378,76.906L46.19,76.934L46.002,76.964L45.814,76.996L45.628,77.031L45.443,77.068L45.258,77.108L45.074,77.15L44.89,77.194L44.708,77.24L44.527,77.288L44.346,77.339L44.166,77.392L43.987,77.446L43.809,77.504L43.632,77.563L43.456,77.624L43.28,77.688L43.106,77.753L42.932,77.821L42.76,77.891L42.589,77.962L42.418,78.036L42.249,78.112L42.081,78.19L41.913,78.27L41.747,78.352L41.582,78.436L41.418,78.521L41.255,78.609L41.093,78.699L40.933,78.79L40.773,78.884L40.615,78.979L40.458,79.076L40.302,79.175L40.147,79.276L39.994,79.379L39.842,79.483L39.691,79.589L39.541,79.697L39.393,79.807L39.246,79.919L39.101,80.032L38.957,80.147L38.814,80.263L38.672,80.382L38.532,80.501L38.394,80.623L38.257,80.746L38.121,80.871L37.987,80.997L37.855,81.125L37.724,81.255L37.594,81.386L37.466,81.518L37.34,81.652L37.215,81.788L37.092,81.925L36.971,82.063L36.851,82.203L36.733,82.344L36.616,82.487L36.502,82.631L36.388,82.776L36.277,82.923L36.167,83.071L36.06,83.22L35.953,83.371L35.849,83.523L35.747,83.676L35.646,83.83L35.547,83.986L35.45,84.143L35.355,84.301L35.262,84.46L35.17,84.62L35.081,84.781L34.994,84.944L34.908,85.108L34.824,85.272L34.743,85.438L34.663,85.605L34.585,85.773L34.51,85.942L34.436,86.112L34.365,86.283L34.295,86.455L34.228,86.627L34.162,86.801L34.099,86.976L34.038,87.152L33.979,87.328L33.922,87.505L33.867,87.684L33.815,87.863L33.764,88.043L33.716,88.224L33.67,88.406L33.626,88.588L33.585,88.771L33.545,88.955L33.508,89.14L33.474,89.326L33.441,89.512L33.411,89.699L33.383,89.887L33.358,90.076L33.334,90.265L33.314,90.455L33.295,90.646L33.279,90.837L33.266,91.03L33.255,91.222L33.246,91.416L33.24,91.61L33.236,91.805L33.235,92.003L33.235,92.141L33.237,92.282L33.24,92.422L33.245,92.563L33.251,92.702L33.258,92.842L33.266,92.982L33.276,93.121L33.287,93.26L33.299,93.399L33.313,93.537L33.327,93.676L33.343,93.814L33.361,93.951L33.379,94.089L33.399,94.226L33.42,94.362L33.442,94.499L33.465,94.635L33.49,94.771L33.515,94.906L33.542,95.041L33.571,95.176L33.6,95.31L33.631,95.444L33.663,95.578L33.696,95.711L33.73,95.844L33.765,95.976L33.802,96.108L33.839,96.24L33.878,96.371L33.918,96.502L33.959,96.633L34.002,96.762L34.045,96.892L34.09,97.021L34.136,97.15L34.183,97.278L34.231,97.406L34.28,97.533L34.33,97.66L34.381,97.786L34.434,97.912L34.488,98.037L34.542,98.162L34.598,98.286L34.655,98.41L34.713,98.533L34.772,98.656L34.832,98.778L34.894,98.9L34.956,99.021L35.019,99.141L35.084,99.261L35.149,99.38L35.216,99.499L35.283,99.617L35.352,99.735L35.422,99.851L35.492,99.968L35.564,100.083L35.637,100.198L35.711,100.312L35.786,100.426L35.861,100.539L35.938,100.651L36.016,100.763L36.095,100.874L36.175,100.984L36.255,101.094L36.337,101.203L36.42,101.311L36.504,101.418L36.588,101.525L36.674,101.631L36.76,101.736L36.848,101.84L36.936,101.944L37.026,102.047L37.116,102.149L37.207,102.251L37.3,102.351L37.393,102.451L37.487,102.55L37.582,102.648L37.678,102.745L37.774,102.842L37.872,102.937L37.97,103.032L38.07,103.126L38.17,103.219L38.271,103.312L38.373,103.403L38.476,103.494L38.58,103.583L38.685,103.672L38.79,103.76L38.897,103.847L39.004,103.933L39.112,104.018L39.221,104.102L39.33,104.185L39.441,104.268L39.552,104.349L39.664,104.429L39.777,104.509L39.891,104.587L40.006,104.665L40.121,104.741L40.237,104.817L40.354,104.891L40.472,104.965L40.591,105.038L40.71,105.109L40.83,105.179L40.951,105.249L41.073,105.317L41.195,105.385L41.318,105.451L41.442,105.516L41.567,105.581L41.692,105.644L41.819,105.706L41.946,105.767L42.073,105.827L42.202,105.886L44.335,106.839L44.311,109.549L44.308,110.058L44.308,110.565L44.31,111.069L44.314,111.571L44.321,112.07L44.329,112.567L44.34,113.061L44.353,113.553L44.368,114.042L44.385,114.529L44.405,115.014L44.426,115.496L44.45,115.975L44.476,116.452L44.503,116.927L44.533,117.4L44.565,117.87L44.599,118.337L44.635,118.802L44.674,119.265L44.714,119.726L44.756,120.184L44.8,120.64L44.847,121.093L44.895,121.544L44.945,121.993L44.997,122.439L45.052,122.883L45.108,123.325L45.166,123.765L45.226,124.202L45.288,124.637L45.353,125.07L45.419,125.5L45.486,125.928L45.556,126.354L45.628,126.777L45.702,127.199L45.777,127.618L45.855,128.035L45.934,128.45L46.015,128.862L46.098,129.272L46.183,129.68L46.27,130.086L46.358,130.49L46.449,130.892L46.541,131.291L46.635,131.688L46.731,132.083L46.828,132.476L46.927,132.867L47.029,133.256L47.131,133.643L47.236,134.027L47.343,134.41L47.451,134.79L47.561,135.168L47.672,135.545L47.785,135.919L47.9,136.291L48.017,136.661L48.136,137.029L48.256,137.395L48.377,137.759L48.501,138.121L48.626,138.481L48.753,138.839L48.881,139.195L49.011,139.549L49.143,139.901L49.276,140.251L49.411,140.599L49.548,140.946L49.686,141.29L49.826,141.632L49.967,141.973L50.11,142.312L50.254,142.648L50.4,142.983L50.548,143.316L50.697,143.647L50.848,143.976L51,144.304L51.154,144.629L51.309,144.953L51.466,145.275L51.624,145.595L51.784,145.913L51.946,146.23L52.108,146.545L52.273,146.858L52.439,147.169L52.606,147.478L52.775,147.786L52.945,148.092L53.117,148.396L53.29,148.699L53.464,148.999L53.64,149.298L53.818,149.596L53.996,149.891L54.177,150.185L54.358,150.478L54.541,150.768L54.726,151.057L54.912,151.345L55.099,151.63L55.288,151.915L55.478,152.197L55.669,152.478L55.862,152.757L56.056,153.035L56.252,153.311L56.448,153.585L56.647,153.858L56.846,154.13L57.047,154.4L57.249,154.668L57.453,154.935L57.657,155.2L57.863,155.464L58.071,155.726L58.28,155.986L58.49,156.246L58.701,156.503L58.913,156.759L59.127,157.014L59.343,157.267L59.559,157.519L59.776,157.769L59.995,158.018L60.216,158.266L60.437,158.512L60.66,158.756L60.884,159L61.109,159.241L61.335,159.482L61.563,159.721L61.791,159.958L62.021,160.194L62.252,160.429L62.485,160.663L62.718,160.895L62.953,161.125L63.189,161.355L63.426,161.583L63.664,161.81L63.904,162.035L64.144,162.259L64.386,162.482L64.629,162.703L64.873,162.923L65.118,163.142L65.365,163.36L65.612,163.576L65.861,163.791L66.11,164.005L66.361,164.217L66.613,164.428L66.866,164.638L67.12,164.847L67.375,165.054L67.631,165.261L67.888,165.466L68.147,165.669L68.406,165.872L68.667,166.073L68.928,166.273L69.191,166.472L69.454,166.67L69.719,166.867L69.985,167.062L70.251,167.256L70.519,167.449L70.788,167.641L71.057,167.832L71.328,168.022L71.599,168.21L71.872,168.397L72.146,168.583L72.42,168.768L72.696,168.952L72.972,169.135L73.25,169.317L73.528,169.497L73.807,169.677L74.088,169.855L74.369,170.033L74.651,170.209L74.934,170.384L75.218,170.558L75.502,170.731L75.788,170.903L76.075,171.074L76.362,171.244L76.65,171.412L76.939,171.58L77.229,171.747L77.52,171.913L77.812,172.077L78.105,172.241L78.398,172.403L78.692,172.565L78.987,172.726L79.283,172.885L79.58,173.044L79.877,173.202L80.172,173.357L80.774,173.669L81.376,173.975L81.98,174.278L82.588,174.577L83.199,174.873L83.812,175.165L84.428,175.453L85.047,175.737L85.669,176.018L86.293,176.296L86.919,176.57L87.548,176.84L88.18,177.108L88.814,177.372L89.45,177.633L90.089,177.89L90.729,178.145L91.372,178.396L92.017,178.644L92.664,178.889L93.312,179.132L93.963,179.371L94.616,179.607L95.27,179.841L95.926,180.072L96.583,180.3L97.242,180.525L97.903,180.748L98.565,180.968L99.229,181.185L99.894,181.4L100.56,181.613L101.227,181.823L101.896,182.031L102.565,182.236L103.236,182.44L103.907,182.641L104.58,182.839L105.253,183.036L105.927,183.231L106.602,183.423L107.278,183.614L107.954,183.803L108.631,183.99L109.308,184.175L109.985,184.358L110.663,184.54L111.342,184.719L112.02,184.898L112.699,185.074L113.378,185.25L114.056,185.423L114.735,185.596L115.414,185.766L116.092,185.936L117.45,186.271L118.805,186.602L120.16,186.929L121.511,187.251L122.861,187.57L124.207,187.887L125.549,188.2L126.888,188.511L129.552,189.129L132.193,189.743L133.505,190.049L134.809,190.356L136.107,190.664L137.397,190.973L138.678,191.284L139.951,191.596L141.214,191.911L141.844,192.07L142.47,192.229L143.093,192.39L143.715,192.551L144.333,192.713L144.949,192.876L145.562,193.041L146.172,193.206L146.78,193.373L147.385,193.541L147.986,193.71L148.585,193.88L149.181,194.052L149.774,194.226L150.364,194.401L150.95,194.577L151.533,194.756L152.113,194.936L152.69,195.118L153.263,195.301L153.833,195.487L154.399,195.675L154.962,195.864L155.521,196.056L156.077,196.25L156.629,196.446L157.177,196.645L157.722,196.846L158.262,197.049L158.799,197.255L159.331,197.463L159.86,197.675L160.385,197.888L160.905,198.105L161.422,198.325L161.934,198.547L162.442,198.773L162.945,199.001L163.445,199.233L163.939,199.468L164.43,199.707L164.916,199.949L165.393,200.192L165.636,200.318L165.874,200.443L166.11,200.569L166.345,200.696L166.58,200.823L166.813,200.952L167.044,201.082L167.275,201.212L167.504,201.344L167.732,201.477L167.959,201.61L168.185,201.745L168.409,201.881L168.632,202.017L168.854,202.155L169.074,202.294L169.294,202.434L169.512,202.575L169.728,202.717L169.943,202.86L170.157,203.004L170.37,203.149L170.581,203.296L170.791,203.444L171,203.592L171.207,203.743L171.413,203.894L171.617,204.046L171.82,204.2L174.944,206.6L174.137,209.754L110.881,219.242L110.761,219.291L110.288,219.488L109.823,219.685L109.365,219.881L108.914,220.078L108.47,220.275L108.033,220.472L107.604,220.669L107.182,220.866L106.767,221.063L106.359,221.26L105.959,221.457L105.566,221.654L105.18,221.851L104.802,222.047L104.431,222.244L104.068,222.44L103.711,222.636L103.362,222.832L103.021,223.028L102.687,223.224L102.36,223.419L102.041,223.614L101.73,223.808L101.425,224.003L101.128,224.196L100.839,224.389L100.557,224.582L100.283,224.774L100.016,224.965L99.756,225.156L99.504,225.346L99.26,225.535L99.023,225.723L98.794,225.911L98.572,226.097L98.357,226.283L98.15,226.467L97.951,226.65L97.759,226.832L97.569,227.017L97.484,227.102L97.396,227.191L97.311,227.28L97.227,227.368L97.144,227.457L97.064,227.544L96.985,227.632L96.908,227.719L96.833,227.805L96.76,227.891L96.688,227.977L96.619,228.062L96.551,228.147L96.484,228.231L96.42,228.314L96.357,228.398L96.296,228.48L96.237,228.563L96.179,228.644L96.123,228.726L96.069,228.806L96.016,228.886L95.965,228.965L95.916,229.044L95.868,229.123L95.821,229.201L95.776,229.278L95.733,229.354L95.692,229.43L95.651,229.506L95.613,229.581L95.575,229.656L95.54,229.73L95.505,229.803L95.472,229.876L95.44,229.948L95.41,230.019L95.381,230.091L95.354,230.162L95.327,230.232L95.302,230.301L95.278,230.371L95.256,230.439L95.234,230.507L95.214,230.575L95.195,230.643L95.177,230.71L95.16,230.777L95.144,230.843L95.129,230.909L95.116,230.975L95.103,231.041L95.092,231.106L95.081,231.171L95.072,231.236L95.063,231.301L95.055,231.366L95.049,231.43L95.043,231.495L95.039,231.559L95.035,231.624L95.032,231.688L95.031,231.753L95.03,231.818L95.03,231.883L95.031,231.948L95.033,232.014L95.037,232.08L95.041,232.146L95.046,232.212L95.052,232.279L95.059,232.346L95.067,232.413L95.077,232.481L95.087,232.55L95.098,232.618L95.111,232.688L95.124,232.758L95.139,232.829L95.155,232.9L95.172,232.971L95.19,233.043L95.21,233.116L95.23,233.19L95.252,233.264L95.276,233.339L95.3,233.415L95.326,233.491L95.353,233.568L95.382,233.646L95.412,233.724L95.443,233.803L95.476,233.883L95.51,233.963L95.545,234.044L95.583,234.127L95.621,234.209L95.661,234.293L95.703,234.377L95.746,234.462L95.791,234.547L95.837,234.634L95.885,234.721L95.935,234.808L95.986,234.897L96.039,234.986L96.093,235.075L96.15,235.166L96.208,235.257L96.267,235.349L96.328,235.442L96.391,235.534L96.456,235.628L96.523,235.723L96.591,235.818L96.66,235.913L96.732,236.009L96.806,236.106L96.881,236.204L96.958,236.301L97.037,236.4L97.113,236.494L97.284,236.699L97.458,236.9L97.639,237.104L97.827,237.31L98.022,237.518L98.226,237.727L98.436,237.939L98.653,238.152L98.878,238.366L99.111,238.582L99.35,238.8L99.598,239.019L99.852,239.24L100.114,239.462L100.383,239.685L100.66,239.91L100.944,240.136L101.236,240.363L101.534,240.591L101.84,240.82L102.154,241.051L102.475,241.282L102.803,241.514L103.138,241.748L103.202,241.792L125.262,244.669L125.525,244.677L125.962,244.691L126.836,244.723L127.719,244.76L128.611,244.803L129.509,244.85L130.415,244.902L131.327,244.959L132.246,245.021L133.171,245.086L134.102,245.156L135.04,245.229L135.982,245.306L136.93,245.387L137.883,245.472L138.841,245.559L139.804,245.65L140.771,245.744L141.742,245.841L142.717,245.94L143.696,246.042L144.678,246.146L145.663,246.253L146.651,246.361L147.641,246.472L148.634,246.584L149.63,246.698L151.623,246.929L153.624,247.165L155.627,247.405L159.634,247.888L161.634,248.13L163.628,248.37L165.615,248.607L167.592,248.84L169.558,249.068L170.535,249.179L171.508,249.288L172.478,249.396L173.443,249.501L174.404,249.605L175.359,249.705L176.31,249.804L177.255,249.899L178.194,249.992L179.128,250.081L180.055,250.167L180.975,250.25L181.888,250.33L182.795,250.406L183.694,250.478L184.585,250.546L185.468,250.61L186.343,250.67L187.209,250.725L188.066,250.776L188.914,250.822L189.752,250.864L190.58,250.9L191.401,250.932L191.804,250.945L192.207,250.958L192.606,250.969L193.003,250.978L193.398,250.987L193.789,250.994L194.178,250.999L194.563,251.003L194.946,251.006L195.326,251.007L195.703,251.007L196.076,251.005L196.447,251.002L196.814,250.997L197.178,250.991L197.539,250.983L197.896,250.973L198.251,250.962L198.601,250.95L198.949,250.935L199.293,250.919L199.633,250.902L199.97,250.883L200.303,250.862L200.632,250.84L200.958,250.816L201.28,250.79L201.598,250.763L201.912,250.734L202.222,250.703L202.529,250.67L202.83,250.636L203.129,250.6L203.423,250.563L203.712,250.524L203.998,250.483L204.279,250.44L204.556,250.396L204.828,250.35L205.096,250.302L205.359,250.252L205.617,250.201L205.871,250.149L206.121,250.095L206.365,250.039L206.604,249.981L206.839,249.922L207.068,249.862L207.293,249.8L207.513,249.736L207.727,249.671L207.936,249.605L208.139,249.537L208.338,249.468L208.531,249.398L208.718,249.327L208.9,249.254L209.077,249.181L209.248,249.107L209.413,249.031L209.573,248.955L209.727,248.879L209.876,248.801L210.018,248.723L210.155,248.645L210.286,248.566L210.412,248.487L210.533,248.408L210.647,248.329L210.757,248.249L210.869,248.164L210.91,248.131L210.959,248.091L211.007,248.051L211.053,248.012L211.097,247.973L211.141,247.934L211.184,247.894L211.226,247.855L211.265,247.817L211.304,247.778L211.342,247.739L211.379,247.7L211.414,247.662L211.448,247.624L211.482,247.585L211.514,247.547L211.546,247.509L211.576,247.47L211.606,247.432L211.635,247.394L211.662,247.356L211.689,247.317L211.716,247.279L211.741,247.24L211.765,247.202L211.789,247.164L211.812,247.125L211.834,247.086L211.856,247.047L211.877,247.007L211.897,246.968L211.917,246.928L211.937,246.887L211.955,246.848L211.973,246.807L211.99,246.765L212.007,246.723L212.023,246.681L212.039,246.638L212.054,246.594L212.069,246.549L212.083,246.505L212.096,246.459L212.11,246.412L212.122,246.365L212.134,246.317L212.145,246.268L212.156,246.218L212.166,246.168L212.176,246.116L212.185,246.063L212.193,246.009L212.201,245.954L212.208,245.897L212.214,245.84L212.22,245.781L212.225,245.722L212.229,245.661L212.233,245.598L212.235,245.535L212.237,245.47L212.238,245.404L212.238,245.336L212.237,245.268L212.236,245.198L212.233,245.126L212.23,245.053L212.225,244.979L212.22,244.903L212.213,244.825L212.205,244.747L212.197,244.667L212.187,244.585L212.176,244.502L212.164,244.418L212.15,244.332L212.136,244.244L212.12,244.156L212.103,244.066L212.085,243.974L212.066,243.88L212.045,243.786L212.023,243.69L211.999,243.592L211.975,243.494L211.95,243.401L211.892,243.188L211.758,242.732L211.645,242.001L211.57,241.488L211.498,240.979L211.43,240.473L211.366,239.972L211.305,239.475L211.248,238.981L211.195,238.491L211.146,238.006L211.1,237.524L211.058,237.046L211.02,236.572L210.986,236.102L210.956,235.636L210.929,235.174L210.907,234.715L210.888,234.26L210.873,233.809L210.862,233.362L210.855,232.919L210.851,232.479L210.852,232.043L210.857,231.611L210.865,231.182L210.878,230.758L210.894,230.337L210.915,229.919L210.94,229.505L210.968,229.095L211.001,228.689L211.038,228.286L211.079,227.887L211.124,227.491L211.174,227.099L211.228,226.711L211.286,226.326L211.348,225.945L211.415,225.567L211.486,225.193L211.561,224.823L211.641,224.456L211.726,224.092L211.815,223.733L211.909,223.376L212.007,223.024L212.11,222.675L212.217,222.33L212.33,221.988L212.447,221.65L212.569,221.316L212.693,220.992L212.761,220.821L212.828,220.658L212.896,220.497L212.965,220.336L213.035,220.176L213.107,220.016L213.179,219.858L213.254,219.701L213.329,219.545L213.406,219.39L213.484,219.236L213.563,219.083L213.643,218.931L213.725,218.78L213.808,218.63L213.892,218.481L213.978,218.333L214.065,218.186L214.154,218.041L214.243,217.896L214.334,217.753L214.426,217.61L214.52,217.469L214.614,217.329L214.711,217.19L214.808,217.052L214.907,216.915L215.007,216.779L215.108,216.645L215.211,216.512L215.315,216.38L215.42,216.249L215.527,216.119L215.634,215.991L215.743,215.864L215.854,215.738L215.966,215.614L216.079,215.49L216.193,215.369L216.308,215.248L216.425,215.129L216.543,215.011L216.662,214.894L216.783,214.778L216.904,214.665L217.027,214.552L217.151,214.441L217.276,214.331L217.403,214.222L217.531,214.116L217.659,214.01L217.789,213.906L217.921,213.803L218.052,213.702L218.186,213.602L218.32,213.503L218.456,213.406L218.593,213.311L218.73,213.217L218.869,213.124L219.009,213.033L219.15,212.943L219.292,212.855L219.434,212.769L219.578,212.684L219.724,212.6L219.869,212.518L220.016,212.437L220.163,212.358L220.313,212.28L220.463,212.204L220.613,212.13L220.764,212.057L220.917,211.985L221.07,211.915L221.224,211.846L221.379,211.779L221.535,211.713L221.692,211.649L221.85,211.586L222.008,211.525L222.167,211.465L222.327,211.407L222.488,211.35L222.65,211.295L222.812,211.241L222.976,211.188L223.139,211.137L223.304,211.088L223.47,211.039L223.636,210.993L223.803,210.947L223.971,210.904L224.139,210.861L224.308,210.82L224.478,210.781L224.649,210.743L224.827,210.704L225.165,210.636L225.513,210.572L225.863,210.514L226.217,210.461L226.573,210.413L226.931,210.371L227.293,210.334L227.657,210.302L228.024,210.275L228.394,210.254L228.766,210.237L229.141,210.226L229.519,210.22L229.9,210.218L230.283,210.222L230.669,210.23L231.058,210.244L231.449,210.262L231.843,210.285L232.241,210.313L232.641,210.345L233.043,210.382L233.449,210.424L233.858,210.471L234.269,210.522L234.683,210.578L235.1,210.639L235.721,210.735L236.266,210.896L236.582,210.985L236.892,211.07L237.197,211.151L237.499,211.227L237.795,211.298L238.087,211.365L238.375,211.428L238.658,211.486L238.936,211.54L239.21,211.59L239.479,211.636L239.743,211.677L240.004,211.715L240.259,211.749L240.51,211.778L240.756,211.804L240.999,211.826L241.236,211.844L241.469,211.859L241.697,211.87L241.922,211.877L242.141,211.881L242.356,211.881L242.567,211.878L242.773,211.872L242.976,211.863L243.173,211.851L243.367,211.835L243.557,211.817L243.742,211.796L243.923,211.771L244.1,211.745L244.274,211.715L244.443,211.683L244.609,211.648L244.771,211.611L244.929,211.572L245.084,211.53L245.236,211.485L245.384,211.439L245.529,211.39L245.671,211.339L245.809,211.286L245.945,211.231L246.079,211.173L246.209,211.114L246.336,211.052L246.462,210.988L246.585,210.922L246.706,210.854L246.824,210.784L246.941,210.712L247.056,210.637L247.168,210.56L247.28,210.481L247.389,210.399L247.497,210.316L247.603,210.229L247.708,210.141L247.811,210.049L247.914,209.955L248.015,209.859L248.114,209.759L248.213,209.657L248.31,209.552L248.407,209.445L248.502,209.334L248.596,209.221L248.689,209.104L248.781,208.984L248.872,208.862L248.962,208.736L249.051,208.607L249.139,208.474L249.225,208.339L249.311,208.2L249.395,208.059L249.479,207.914L249.561,207.765L249.642,207.614L249.722,207.459L249.801,207.301L249.878,207.139L249.955,206.975L250.03,206.807L250.104,206.636L250.176,206.461L250.247,206.284L250.317,206.103L250.386,205.919L250.453,205.732L250.519,205.542L250.584,205.349L250.647,205.153L250.709,204.954L250.769,204.752L250.828,204.546L250.886,204.338L250.942,204.127L250.997,203.913L251.05,203.696L251.102,203.476L251.153,203.254L251.202,203.029L251.249,202.801L251.295,202.571L251.34,202.337L251.383,202.102L251.425,201.863L251.466,201.623L251.505,201.379L251.542,201.133L251.578,200.885L251.613,200.635L251.647,200.382L251.678,200.126L251.709,199.869L251.738,199.609L251.766,199.347L251.792,199.083L251.818,198.817L251.841,198.548L251.864,198.278L251.885,198.005L251.905,197.731L251.923,197.454L251.94,197.176L251.956,196.895L251.971,196.613L251.985,196.329L251.997,196.043L252.008,195.756L252.018,195.467L252.026,195.175L252.034,194.886L252.045,194.292L252.052,193.696L252.055,193.093L252.053,192.485L252.047,191.871L252.038,191.252L252.024,190.627L252.007,189.998L251.986,189.365L251.962,188.727L251.934,188.084L251.903,187.438L251.87,186.789L251.833,186.135L251.794,185.479L251.752,184.82L251.708,184.158L251.661,183.493L251.613,182.826L251.562,182.157L251.51,181.486L251.456,180.814L251.4,180.14L251.343,179.466L251.225,178.111L251.104,176.755L250.981,175.398L250.856,174.042L250.608,171.34L250.487,169.996L250.37,168.659L250.258,167.333L250.204,166.671L250.152,166.013L250.101,165.358L250.053,164.707L250.007,164.058L249.964,163.413L249.923,162.772L249.884,162.134L249.849,161.5L249.816,160.871L249.787,160.246L249.761,159.625L249.738,159.008L249.719,158.397L249.704,157.79L249.693,157.188L249.687,156.591L249.685,156.053L248.695,120.414L248.593,119.958L248.424,119.206L248.253,118.465L248.082,117.736L247.911,117.017L247.739,116.311L247.567,115.615L247.394,114.931L247.221,114.258L247.047,113.597L246.873,112.948L246.699,112.309L246.524,111.682L246.349,111.067L246.174,110.463L245.998,109.871L245.822,109.29L245.645,108.721L245.469,108.164L245.292,107.618L245.115,107.084L244.938,106.562L244.76,106.051L244.582,105.552L244.405,105.065L244.227,104.59L244.049,104.127L243.872,103.676L243.694,103.236L243.516,102.809L243.339,102.394L243.16,101.986L243.074,101.794L242.986,101.6L242.897,101.409L242.809,101.221L242.721,101.036L242.634,100.855L242.546,100.676L242.458,100.5L242.371,100.328L242.284,100.159L242.197,99.993L242.11,99.83L242.024,99.67L241.938,99.513L241.852,99.36L241.766,99.209L241.681,99.062L241.596,98.918L241.511,98.777L241.427,98.639L241.343,98.505L241.26,98.374L241.177,98.246L241.094,98.121L241.012,97.999L240.931,97.88L240.85,97.765L240.77,97.653L240.69,97.544L240.611,97.439L240.532,97.336L240.455,97.237L240.378,97.141L240.302,97.049L240.227,96.959L240.152,96.873L240.079,96.79L240.007,96.71L239.935,96.633L239.865,96.56L239.796,96.489L239.728,96.422L239.661,96.358L239.595,96.297L239.531,96.239L239.468,96.184L239.406,96.132L239.346,96.082L239.288,96.036L239.23,95.992L239.175,95.951L239.121,95.913L239.069,95.878L239.018,95.845L238.969,95.814L238.922,95.785L238.876,95.759L238.833,95.736L238.791,95.714L238.75,95.694L238.711,95.676L238.674,95.66L238.639,95.645L238.605,95.632L238.573,95.621L238.542,95.611L238.512,95.601L238.484,95.594L238.457,95.587L238.43,95.581L238.405,95.576L238.38,95.572L238.356,95.568L238.333,95.565L238.31,95.563L238.286,95.561L238.263,95.56L238.24,95.56L238.216,95.56L238.192,95.561L238.167,95.562L238.141,95.564L238.114,95.567L238.087,95.571L238.058,95.576L238.027,95.581L237.995,95.588L237.962,95.596L237.927,95.605L237.891,95.615L237.852,95.627L237.811,95.64L237.769,95.656L237.725,95.672L237.679,95.691L237.631,95.712L237.581,95.734L237.529,95.759L237.475,95.786L237.419,95.816L237.362,95.848L237.302,95.882L237.241,95.919L237.177,95.958L237.112,96L237.045,96.045L236.977,96.093L236.906,96.143L236.834,96.196L236.761,96.252L236.686,96.311L236.609,96.374L236.532,96.438L236.452,96.506L236.371,96.578L236.289,96.652L236.206,96.729L236.121,96.809L236.036,96.893L235.949,96.979L235.86,97.069L235.771,97.162L235.681,97.258L235.59,97.356L235.498,97.459L235.405,97.564L235.311,97.673L235.216,97.784L235.12,97.899L235.023,98.017L234.926,98.138L234.828,98.262L234.729,98.389L234.629,98.519L234.529,98.653L234.427,98.79L234.326,98.929L234.223,99.072L234.12,99.218L234.017,99.367L233.913,99.519L233.808,99.674L233.703,99.833L233.597,99.994L233.491,100.158L233.384,100.326L233.276,100.496L233.168,100.67L233.06,100.847L232.951,101.026L232.842,101.209L232.735,101.391L232.512,101.775L232.29,102.167L232.066,102.572L231.841,102.988L231.615,103.417L231.387,103.857L231.158,104.309L230.927,104.772L230.695,105.248L230.462,105.735L230.228,106.234L229.993,106.745L229.757,107.267L229.52,107.801L229.281,108.346L229.042,108.903L228.802,109.472L228.561,110.052L228.319,110.644L228.185,110.975L214.404,177.761L209.439,177.677L208.518,172.318L208.304,171.077L208.088,169.841L207.873,168.611L207.657,167.388L207.441,166.171L207.224,164.961L207.007,163.756L206.789,162.558L206.571,161.366L206.353,160.18L206.134,159L205.914,157.826L205.695,156.659L205.475,155.498L205.254,154.343L205.033,153.194L204.811,152.051L204.589,150.914L204.367,149.784L204.144,148.66L203.921,147.541L203.697,146.429L203.472,145.323L203.248,144.223L203.022,143.129L202.796,142.041L202.57,140.96L202.343,139.884L202.116,138.814L201.888,137.751L201.66,136.693L201.431,135.642L201.201,134.596L200.971,133.557L200.741,132.524L200.51,131.496L200.278,130.475L200.046,129.459L199.814,128.45L199.58,127.447L199.347,126.449L199.112,125.458L198.877,124.472L198.642,123.493L198.406,122.519L198.169,121.551L197.932,120.59L197.694,119.634L197.456,118.684L197.217,117.74L196.977,116.802L196.737,115.87L196.497,114.943L196.255,114.023L196.013,113.109L195.77,112.2L195.527,111.297L195.283,110.4L195.039,109.509L194.794,108.624L194.548,107.745L194.302,106.871L194.055,106.004L193.807,105.142L193.558,104.286L193.309,103.435L193.06,102.591L192.809,101.752L192.558,100.919L192.307,100.092L192.054,99.271L191.801,98.456L191.548,97.646L191.293,96.842L191.038,96.044L190.783,95.251L190.526,94.464L190.269,93.683L190.011,92.908L189.753,92.138L189.493,91.374L189.234,90.616L188.973,89.864L188.711,89.117L188.449,88.376L188.187,87.64L187.923,86.911L187.659,86.187L187.394,85.468L187.128,84.755L186.862,84.048L186.595,83.347L186.327,82.651L186.058,81.961L185.789,81.276L185.519,80.597L185.248,79.924L184.976,79.256L184.704,78.594L184.431,77.937L184.157,77.286L183.882,76.641L183.607,76.001L183.331,75.367L183.054,74.738L182.776,74.115L182.498,73.498L182.218,72.885L181.938,72.279L181.658,71.678L181.376,71.082L181.094,70.492L180.811,69.908L180.527,69.329L180.243,68.755L179.957,68.187L179.671,67.625L179.384,67.068L179.097,66.516L178.808,65.97L178.519,65.429L178.229,64.894L177.938,64.364L177.647,63.84L177.354,63.321L177.061,62.808L176.767,62.299L176.473,61.797L176.177,61.299L175.881,60.807L175.584,60.321L175.286,59.839L174.988,59.363L174.688,58.893L174.388,58.428L174.088,57.968L173.786,57.513L173.484,57.064L173.18,56.62L172.876,56.181L172.572,55.748L172.266,55.32L171.96,54.897L171.653,54.479L171.345,54.067L171.037,53.66L170.728,53.258L170.418,52.861L170.107,52.469L169.795,52.083L169.483,51.702L169.17,51.326L168.856,50.955L168.541,50.589L168.226,50.228L167.91,49.873L167.593,49.522L167.275,49.177L166.957,48.836L166.638,48.501L166.318,48.17L165.997,47.845L165.676,47.525L165.354,47.209L165.031,46.899L164.707,46.594L164.383,46.293L164.057,45.997L163.731,45.707L163.405,45.421L163.077,45.14L162.748,44.864L162.419,44.592L162.089,44.326L161.758,44.064L161.427,43.807L161.095,43.555L160.761,43.307L160.427,43.064L160.092,42.826L159.757,42.592L159.42,42.364L159.082,42.139L158.744,41.92L158.405,41.704L158.065,41.494L157.724,41.288L157.382,41.086L157.039,40.889L156.695,40.697L156.35,40.509L156.004,40.325L155.657,40.146L155.31,39.971L154.961,39.801L154.611,39.635L154.26,39.473L153.908,39.316L153.555,39.163L153.2,39.014L152.845,38.87L152.488,38.729L152.131,38.594L151.772,38.462L151.411,38.334L151.05,38.211L150.687,38.092L150.323,37.977L149.958,37.867L149.592,37.76L149.224,37.658L148.854,37.559L148.484,37.465L148.112,37.375L147.738,37.289L147.363,37.208L146.987,37.13L146.609,37.057L146.229,36.987L145.848,36.922L145.466,36.86L145.082,36.803L144.696,36.75L144.309,36.701L143.92,36.656L143.529,36.615L143.137,36.578L142.743,36.546L142.348,36.517L141.95,36.492L141.551,36.472L141.15,36.455L140.748,36.443L140.344,36.434L139.938,36.43L139.53,36.43L139.12,36.433L138.709,36.441L138.295,36.453L137.88,36.469L137.463,36.489L137.044,36.513L136.623,36.542L136.201,36.574L135.776,36.61L135.35,36.65L134.921,36.695L134.491,36.743L134.059,36.796L133.625,36.853L133.189,36.914L132.751,36.978L132.311,37.047L131.869,37.12L131.406,37.201L131.261,37.225L131.088,37.251L130.914,37.273L130.741,37.292L130.567,37.307L130.394,37.318L130.221,37.326L130.048,37.33L129.876,37.33L129.704,37.327L129.533,37.321L129.361,37.311L129.191,37.298L129.021,37.281L128.852,37.261L128.683,37.237L128.516,37.21L128.349,37.18L128.183,37.146L128.018,37.109L127.854,37.069L127.691,37.026L127.529,36.979L127.368,36.929L127.208,36.877L127.05,36.82L126.892,36.761L126.736,36.699L126.581,36.634L126.428,36.565L126.276,36.494L126.126,36.42L125.977,36.342L125.829,36.262L125.683,36.179L125.539,36.092L125.396,36.004L125.255,35.912L125.116,35.817L124.979,35.719L124.843,35.619L124.709,35.515L124.578,35.41L124.448,35.301L124.32,35.189L124.194,35.075L124.07,34.958L123.949,34.839L123.83,34.717L123.713,34.592L123.598,34.465L123.486,34.335L123.376,34.203L123.269,34.068L123.164,33.931L123.062,33.791L122.962,33.649L122.865,33.504L122.771,33.358L122.68,33.209L122.591,33.057L122.505,32.904L122.422,32.749L122.336,32.578L122.263,32.423L122.22,32.334L122.176,32.247L122.132,32.162L122.087,32.078L122.041,31.995L121.995,31.914L121.948,31.834L121.9,31.756L121.852,31.679L121.803,31.603L121.753,31.528L121.703,31.455L121.652,31.383L121.6,31.312L121.548,31.242L121.495,31.173L121.441,31.105L121.386,31.038L121.331,30.972L121.275,30.908L121.218,30.844L121.161,30.781L121.102,30.719L121.043,30.657L120.983,30.597L120.922,30.537L120.86,30.478L120.797,30.42L120.734,30.362L120.669,30.305L120.604,30.249L120.537,30.194L120.47,30.139L120.401,30.085L120.332,30.032L120.261,29.979L120.19,29.927L120.117,29.875L120.043,29.824L119.968,29.773L119.892,29.724L119.815,29.674L119.737,29.626L119.657,29.578L119.576,29.53L119.494,29.483L119.411,29.436L119.327,29.391L119.242,29.345L119.155,29.301L119.067,29.257L118.978,29.213L118.887,29.17L118.795,29.128L118.702,29.086L118.608,29.044L118.512,29.004L118.416,28.964L118.317,28.924L118.218,28.885L118.117,28.847L118.016,28.809L117.919,28.775L117.702,28.7L117.487,28.63L117.266,28.563L117.041,28.498L116.811,28.435L116.576,28.375L116.336,28.318L116.092,28.263L115.843,28.211L115.589,28.161L115.331,28.114L115.068,28.07L114.801,28.028L114.529,27.988L114.253,27.951L113.974,27.916L113.69,27.884L113.402,27.854L113.11,27.826L112.815,27.801L112.515,27.778L112.212,27.758L111.906,27.739L111.596,27.723L111.283,27.709L110.966,27.697L110.646,27.687L110.323,27.679L109.996,27.672L109.667,27.668L109.335,27.665L109.006,27.665L108.809,27.666L108.619,27.67L108.429,27.676L108.24,27.684L108.051,27.695L107.864,27.708L107.677,27.724L107.49,27.742L107.304,27.762L107.119,27.785Z" style="fill:rgb(83,78,113);"/>
        </g>
        <g transform="matrix(5.81472,-1.30654,0.965531,4.29708,-931.552,-787.216)">
            <ellipse cx="137.283" cy="289.87" rx="6.048" ry="4.617" style="fill:rgb(215,219,194);"/>
        </g>
    </g>
    <g transform="matrix(1,0,0,1,-89.3761,-2.65339)">
        <text x="147.736px" y="54.757px" style="font-family:'SanFranciscoDisplay-Regular';font-size:48px;fill:rgb(215,219,194);">(<tspan x="161.353px " y="54.757px ">G</tspan>enerall<tspan x="331.322px " y="54.757px ">y</tspan>)</text>
    </g>
    <g transform="matrix(1.37772,0,0,1.37772,-180.792,42.495)">
        <text x="174.807px" y="54.757px" style="font-family:'SanFranciscoDisplay-Bold',system,sans-serif;font-weight:bold;font-size:48px;fill:rgb(83,78,113);stroke-width:0.73px;stroke-linecap:butt;stroke:rgb(230,230,230);">Help<tspan x="275.025px " y="54.757px ">f</tspan>ul</text>
        <text x="250.51px" y="74.757px" style="font-family:'SanFranciscoDisplay-Bold',system,sans-serif;font-weight:bold;font-size:20px;fill:rgb(83,78,113);stroke-width:0.73px;stroke-linecap:butt;stroke:rgb(230,230,230);">Soft<tspan x="288.996px " y="74.757px ">w</tspan>ar<tspan x="322.805px " y="74.757px ">e</tspan></text>
    </g>
</svg>
